<?xml version="1.0" standalone="no"?><!DOCTYPE svg PUBLIC "-//W3C//DTD SVG 1.1//EN" "http://www.w3.org/Graphics/SVG/1.1/DTD/svg11.dtd"><svg t="1670006727360" class="icon" viewBox="0 0 1024 1024" version="1.1" xmlns="http://www.w3.org/2000/svg" p-id="3640" xmlns:xlink="http://www.w3.org/1999/xlink" width="200" height="200"><path d="M372.363636 744.727273h-76.101818a54.225455 54.225455 0 0 1-50.036363-30.487273 40.727273 40.727273 0 0 1-4.887273-23.272727 151.738182 151.738182 0 0 0-23.272727-82.152728 152.436364 152.436364 0 0 0-20.945455-24.901818 351.883636 351.883636 0 0 1-41.890909-56.087272 302.545455 302.545455 0 0 1-27.927273-54.69091A180.363636 180.363636 0 0 1 116.363636 418.909091a246.923636 246.923636 0 0 1 6.050909-61.44 222.021818 222.021818 0 0 1 38.167273-84.712727A268.8 268.8 0 0 1 261.585455 186.181818a240.174545 240.174545 0 0 1 54.690909-18.385454 286.952727 286.952727 0 0 1 69.818181-5.585455 256 256 0 0 1 93.09091 21.178182 251.810909 251.810909 0 0 1 52.363636 32.349091 281.6 281.6 0 0 1 60.974545 67.723636 229.934545 229.934545 0 0 1 31.185455 76.334546 222.254545 222.254545 0 0 1 4.654545 66.792727 184.32 184.32 0 0 1-13.963636 55.621818 312.32 312.32 0 0 1-44.683636 77.265455 328.145455 328.145455 0 0 1-25.134546 28.858181 114.269091 114.269091 0 0 0-23.272727 34.676364 165.701818 165.701818 0 0 0-14.196364 40.261818c-1.163636 8.610909-1.163636 16.989091-2.094545 25.367273a124.741818 124.741818 0 0 1-2.56 18.385455 51.665455 51.665455 0 0 1-24.901818 29.323636 58.88 58.88 0 0 1-29.323637 7.214545z m-26.996363-512c-7.68 0-15.592727 1.396364-23.272728 2.792727a151.738182 151.738182 0 0 0-52.596363 18.850909 171.752727 171.752727 0 0 0-39.330909 31.418182 165.003636 165.003636 0 0 0-30.72 45.149091A169.658182 169.658182 0 0 0 186.181818 397.963636a19.549091 19.549091 0 1 0 39.098182 2.094546v-9.774546a116.363636 116.363636 0 0 1 7.447273-34.676363 131.956364 131.956364 0 0 1 46.545454-59.578182 118.458182 118.458182 0 0 1 66.792728-24.436364 85.178182 85.178182 0 0 0 13.265454-1.163636 16.523636 16.523636 0 0 0 13.498182-10.938182 25.6 25.6 0 0 0 0-13.265454 16.523636 16.523636 0 0 0-14.894546-13.498182z m-73.541818 581.818182h201.076363a15.127273 15.127273 0 0 1 15.825455 13.730909v42.356363a15.127273 15.127273 0 0 1-15.825455 13.730909h-201.076363a15.127273 15.127273 0 0 1-15.825455-13.730909v-42.356363a15.127273 15.127273 0 0 1 15.825455-13.730909z" fill="#454ce1" opacity=".3" p-id="3641"></path><path d="M605.090909 804.538182h-90.298182A63.767273 63.767273 0 0 1 455.447273 768a50.734545 50.734545 0 0 1-5.818182-26.763636 186.181818 186.181818 0 0 0-27.927273-99.374546 181.992727 181.992727 0 0 0-24.669091-30.254545 415.883636 415.883636 0 0 1-49.803636-67.723637 378.181818 378.181818 0 0 1-33.28-66.56 226.443636 226.443636 0 0 1-11.403636-68.421818 298.123636 298.123636 0 0 1 7.214545-74.705454 266.24 266.24 0 0 1 46.545455-101.003637 319.767273 319.767273 0 0 1 119.621818-103.796363 291.374545 291.374545 0 0 1 65.163636-23.272728 331.170909 331.170909 0 0 1 81.687273-6.516363 281.134545 281.134545 0 0 1 170.356363 65.629091 338.850909 338.850909 0 0 1 72.378182 82.152727 279.272727 279.272727 0 0 1 37.003637 93.090909 276.014545 276.014545 0 0 1 5.12 80.058182 235.054545 235.054545 0 0 1-16.523637 67.490909 389.12 389.12 0 0 1-83.083636 128.232727 147.083636 147.083636 0 0 0-27.229091 42.123637 202.24 202.24 0 0 0-16.756364 48.872727c-1.629091 10.24-1.629091 20.48-2.56 30.487273a147.781818 147.781818 0 0 1-3.258181 23.272727 60.043636 60.043636 0 0 1-29.556364 35.374545 66.327273 66.327273 0 0 1-34.443636 9.076364z m-18.618182-626.734546c-9.774545 0-19.549091 1.861818-29.090909 3.490909a192.930909 192.930909 0 0 0-65.396363 23.272728A209.454545 209.454545 0 0 0 442.181818 243.665455a194.327273 194.327273 0 0 0-37.934545 55.854545 211.781818 211.781818 0 0 0-16.756364 82.850909 25.134545 25.134545 0 0 0 8.378182 19.781818 23.272727 23.272727 0 0 0 20.712727 5.818182 25.134545 25.134545 0 0 0 19.549091-23.272727V372.363636a144.523636 144.523636 0 0 1 8.610909-43.054545A164.538182 164.538182 0 0 1 502.458182 256a146.850909 146.850909 0 0 1 82.850909-30.021818l16.756364-1.396364a20.48 20.48 0 0 0 16.523636-13.730909 25.134545 25.134545 0 0 0 0-16.523636 20.48 20.48 0 0 0-18.152727-16.523637zM488.727273 861.090909h232.727272a18.152727 18.152727 0 0 1 18.152728 18.152727v56.32a18.385455 18.385455 0 0 1-18.152728 18.618182H488.727273a18.385455 18.385455 0 0 1-18.152728-18.385454v-56.785455A18.152727 18.152727 0 0 1 488.727273 861.090909z" fill="#42b883" p-id="3642"></path></svg>